Coordinates
version=1
nRows=19
nColumns=24
inDegrees=yes

Units are S.I. units (second, meters, Newtons, ...)
Angles are in degrees.

endheader
time	pelvis_tilt	pelvis_list	pelvis_rotation	pelvis_tx	pelvis_ty	pelvis_tz	hip_flexion_r	hip_adduction_r	hip_rotation_r	knee_angle_r	ankle_angle_r	subtalar_angle_r	mtp_angle_r	hip_flexion_l	hip_adduction_l	hip_rotation_l	knee_angle_l	ankle_angle_l	subtalar_angle_l	mtp_angle_l	lumbar_extension	lumbar_bending	lumbar_rotation
      0.98316667	     -0.93229419	     -3.76676808	     -0.11040134	     -0.07408373	      1.02458398	      0.29098320	    -11.33172154	      9.38018496	      0.54123037	    -11.55695386	      8.87714378	     -4.37625790	      2.64443754	     17.83198130	     -2.08248888	     -1.39931311	      8.78259161	      4.30829483	     -4.63582067	    -10.43018524	     -4.59339624	      2.37234311	      3.36292007
      0.98733333	     -0.91773902	     -3.66799934	     -0.15446194	     -0.06831069	      1.02401283	      0.29073234	    -11.40481281	      9.23184724	      0.46815266	    -12.13514912	      8.98426447	     -4.19944142	      2.76905857	     17.84370677	     -1.90037373	     -1.03449058	      8.39220368	      4.28925853	     -4.75350226	    -10.25335472	     -4.57568113	      2.23281231	      3.40761517
      0.99150000	     -0.89182624	     -3.53927007	     -0.20356599	     -0.06253097	      1.02349357	      0.29048056	    -11.45528669	      9.04616450	      0.35847781	    -12.78088296	      9.09282547	     -3.97335225	      2.97146718	     17.84751132	     -1.68812936	     -0.69121738	      7.94363551	      4.18700214	     -4.94697205	     -9.95268359	     -4.59260023	      2.09088802	      3.46316614
      0.99566667	     -0.82758334	     -3.40196969	     -0.24238532	     -0.05671842	      1.02306059	      0.29025622	    -11.55538427	      8.87033909	      0.34234224	    -13.39841231	      9.05751746	     -4.03360811	      3.01556444	     17.82481880	     -1.46844288	     -0.41093101	      7.41497705	      4.15241073	     -5.00900697	     -9.88151812	     -4.63149933	      1.90831186	      3.48546109
      0.99983333	     -0.78375512	     -3.26172077	     -0.28543834	     -0.05089864	      1.02261374	      0.29001266	    -11.56769757	      8.66922253	      0.17433459	    -14.15751467	      9.17714335	     -3.68340727	      3.27706055	     17.79981807	     -1.24934580	      0.01292585	      6.90640004	      3.91363179	     -5.41869879	     -9.49473577	     -4.65168558	      1.72265230	      3.57133637
      1.00400000	     -0.71011099	     -3.09622785	     -0.31830333	     -0.04503985	      1.02224452	      0.28978800	    -11.62856020	      8.46556180	      0.12941940	    -14.86544155	      9.07981776	     -3.77424394	      3.33413780	     17.77676867	     -1.00116133	      0.25751600	      6.28800690	      3.80826580	     -5.52613051	     -9.40483177	     -4.70017681	      1.50343598	      3.58871186
      1.00816667	     -0.66364947	     -2.94528059	     -0.35636655	     -0.03917947	      1.02184206	      0.28955346	    -11.60786975	      8.26125552	     -0.00213127	    -15.67151062	      8.96142914	     -3.62747305	      6.37873911	     17.75256428	     -0.77408679	      0.67256245	      5.72456277	      3.37497960	     -6.06890494	     -4.92464898	     -4.71064497	      1.28982225	      3.65707725
      1.01233333	     -0.53839664	     -2.75539809	     -0.39067926	     -0.03330260	      1.02160405	      0.28931102	    -11.64785692	      8.01205819	     -0.17150205	    -16.52929475	      8.93049216	     -3.45926598	      6.42196954	     17.65348868	     -0.50416554	      0.96558788	      5.10689803	      3.06390785	     -6.41553141	     -4.86379028	     -4.82615158	      1.03627063	      3.70868136
      1.01650000	     -0.48148158	     -2.57782664	     -0.42489434	     -0.02741516	      1.02129002	      0.28906079	    -11.58232342	      7.77811543	     -0.33005271	    -17.44186477	      8.82170889	     -3.34671083	      6.52452483	     17.62908789	     -0.24791399	      1.31160260	      4.47254991	      2.69825413	     -6.89842751	     -4.74900959	     -4.84802186	      0.80305648	      3.76031580
      1.02066667	     -0.38578285	     -2.39411793	     -0.45742375	     -0.02152255	      1.02106049	      0.28880671	    -11.53368108	      7.53321827	     -0.50901908	    -18.39215352	      8.66256664	     -3.23341040	      6.68177799	     17.55805190	      0.01288450	      1.64083267	      3.83674523	      2.28043260	     -7.41358430	     -4.59831794	     -4.92027949	      0.55149291	      3.81246316
      1.02483333	     -0.29686464	     -2.19876353	     -0.49273606	     -0.01561920	      1.02085614	      0.28853895	    -11.44577668	      7.26927800	     -0.70936620	    -19.39679060	      8.45674357	     -3.11668360	      6.90395964	     17.49223191	      0.28440932	      1.95480007	      3.19357284	      1.83303890	     -7.95686146	     -4.41025871	     -4.98617350	      0.29769684	      3.86208724
      1.02900000	     -0.18648819	     -1.99774720	     -0.53000217	     -0.00970796	      1.02072764	      0.28826996	    -11.35012460	      6.99030571	     -0.94257538	    -20.44902701	      8.19503109	     -2.99221999	      7.20266773	     17.39714375	      0.55868100	      2.24653564	      2.55470477	      1.35359072	     -8.51664804	     -4.18552476	     -5.07073039	      0.02417824	      3.91344040
      1.03316667	     -0.09290977	     -1.78909981	     -0.56931385	     -0.00378801	      1.02059442	      0.28800351	    -11.21154869	      6.70266837	     -1.16713526	    -21.52509582	      7.74929394	     -3.03686390	     10.37868714	     17.32293717	      0.83708100	      2.49815160	      1.90432152	      0.87191585	     -9.04706639	     -2.03692891	     -5.13736651	     -0.25528983	      3.91986869
      1.03733333	      0.02663868	     -1.56647555	     -0.61261894	      0.00213512	      1.02055743	      0.28769156	    -11.05906894	      6.37271702	     -1.47820408	    -22.68128206	      7.38759931	     -2.80760686	     10.45423823	     17.22225795	      1.12965582	      2.66642764	      1.24247390	      0.40793454	     -9.47775628	     -2.00874405	     -5.23658504	     -0.54212809	      4.00193377
      1.04150000	      0.11246589	     -1.34653474	     -0.65495009	      0.00805120	      1.02050159	      0.28737404	    -10.83895701	      6.04224684	     -1.78458693	    -23.88235868	      6.94676807	     -2.66191126	     10.61410019	     17.14925182	      1.41706066	      2.88301386	      0.59311350	     -0.07351719	    -10.01028205	     -1.95929566	     -5.29404746	     -0.82566019	      4.04457565
      1.04566667	      0.21431844	     -1.11941199	     -0.70153978	      0.01396057	      1.02050157	      0.28704645	    -10.60537063	      5.69004583	     -2.11520396	    -25.12484780	      6.43540156	     -2.51264035	     10.85487793	     17.05482745	      1.70793058	      3.06040340	     -0.05240921	     -0.53007233	    -10.49619934	     -1.89831217	     -5.37479518	     -1.12197330	      4.08874013
      1.04983333	      0.32309604	     -0.88500435	     -0.75888320	      0.01988431	      1.02055918	      0.28669591	    -10.34909686	      5.30878990	     -2.47686863	    -26.40514212	      5.82215863	     -2.35651426	     11.30064418	     16.93956978	      2.00374059	      3.21876214	     -0.68263320	     -0.93008696	    -11.00351848	     -1.80255868	     -5.44546660	     -1.40214702	      4.13016015
      1.05400000	      0.46902608	     -0.64086088	     -0.82235738	      0.02577979	      1.02072219	      0.28638634	    -10.11999454	      4.91804526	     -2.79403688	    -27.67264897	      5.00834632	     -2.37501298	     13.91916355	     16.76688418	      2.30221372	      3.37476423	     -1.27152196	     -1.44540927	    -11.55472387	     -1.34532259	     -5.61074845	     -1.73452938	      4.14203703
      1.05816667	      0.51568363	     -0.39731331	     -0.86184692	      0.03166568	      1.02076147	      0.28598624	     -9.72647551	      4.49868081	     -3.22444644	    -29.05158143	      4.31316463	     -2.14562146	     14.05762798	     16.76078212	      2.60025549	      3.33685633	     -1.99842186	     -1.62628152	    -11.60900713	     -1.33355185	     -5.61659058	     -2.03792319	      4.18814091
